<?xml version="1.0" encoding="UTF-8"?>
<!DOCTYPE svg PUBLIC "-//W3C//DTD SVG 1.1//EN" "http://www.w3.org/Graphics/SVG/1.1/DTD/svg11.dtd">
<!-- Creator: CorelDRAW 2019 (64 Bit) -->
<svg xmlns="http://www.w3.org/2000/svg" xml:space="preserve" width="80.2403mm" height="80.2407mm" version="1.1" style="shape-rendering:geometricPrecision; text-rendering:geometricPrecision; image-rendering:optimizeQuality; fill-rule:evenodd; clip-rule:evenodd"
viewBox="0 0 661.9 661.91"
 xmlns:xlink="http://www.w3.org/1999/xlink">
 <defs>
  <style type="text/css">
   <![CDATA[
    .fil3 {fill:#FEFEFE;fill-rule:nonzero}
    .fil0 {fill:#BCBDC2;fill-rule:nonzero}
    .fil1 {fill:#BABCC2;fill-rule:nonzero}
    .fil2 {fill:#415C9A;fill-rule:nonzero}
   ]]>
  </style>
 </defs>
 <g id="Camada_x0020_1">
  <metadata id="CorelCorpID_0Corel-Layer"/>
  <path class="fil0" d="M661.9 334.89c0,180.6 -146.41,327.02 -327.02,327.02 -180.61,0 -327.02,-146.41 -327.02,-327.02 0,-180.61 146.41,-327.02 327.02,-327.02 180.6,0 327.02,146.41 327.02,327.02z"/>
  <path class="fil0" d="M657.97 330.96c0,180.6 -146.41,327.02 -327.02,327.02 -180.6,0 -327.02,-146.41 -327.02,-327.02 0,-180.61 146.41,-327.02 327.02,-327.02 180.61,0 327.02,146.41 327.02,327.02z"/>
  <path class="fil1" d="M654.04 327.02c0,180.6 -146.41,327.01 -327.02,327.01 -180.61,0 -327.02,-146.41 -327.02,-327.01 0,-180.61 146.41,-327.02 327.02,-327.02 180.6,0 327.02,146.41 327.02,327.02z"/>
  <path class="fil2" d="M654.04 327.02c0,-180.61 -146.42,-327.02 -327.02,-327.02 -180.61,0 -327.02,146.41 -327.02,327.02 0,180.6 146.41,327.01 327.02,327.01 0.94,0 1.86,-0.06 2.8,-0.06l0 -228.14 -78.74 0 0 -91.19 78.74 0 0 -67.24c0,-78.04 47.66,-120.53 117.26,-120.53 33.35,0 62.01,2.49 70.36,3.59l0 81.56 -48.28 0.02c-37.86,0 -45.18,17.99 -45.18,44.38l0 58.22 90.29 0 -11.76 91.19 -78.53 0 0 213.59c133.26,-41.32 230.06,-165.55 230.06,-312.4z"/>
  <path class="fil3" d="M502.51 425.84l11.76 -91.19 -90.29 0 0 -58.22c0,-26.4 7.32,-44.38 45.18,-44.38l48.28 -0.02 0 -81.56c-8.35,-1.11 -37.01,-3.59 -70.36,-3.59 -69.6,0 -117.26,42.49 -117.26,120.53l0 67.24 -78.74 0 0 91.19 78.74 0 0 228.14c32.76,-0.28 64.38,-5.32 94.16,-14.55l0 -213.59 78.53 0z"/>
 </g>
</svg>
