<?xml version="1.0" encoding="UTF-8"?>
<!DOCTYPE svg PUBLIC "-//W3C//DTD SVG 1.1//EN" "http://www.w3.org/Graphics/SVG/1.1/DTD/svg11.dtd">
<!-- Creator: CorelDRAW 2019 (64 Bit) -->
<svg xmlns="http://www.w3.org/2000/svg" xml:space="preserve" width="79.7638mm" height="79.7637mm" version="1.1" style="shape-rendering:geometricPrecision; text-rendering:geometricPrecision; image-rendering:optimizeQuality; fill-rule:evenodd; clip-rule:evenodd"
viewBox="0 0 607.46 607.46"
 xmlns:xlink="http://www.w3.org/1999/xlink">
 <defs>
  <style type="text/css">
   <![CDATA[
    .fil3 {fill:#FEFEFE;fill-rule:nonzero}
    .fil0 {fill:#BCBDC2;fill-rule:nonzero}
    .fil1 {fill:#BABCC2;fill-rule:nonzero}
    .fil2 {fill:url(#id0)}
   ]]>
  </style>
  <radialGradient id="id0" gradientUnits="userSpaceOnUse" gradientTransform="matrix(1.84706 -2.13984 -1.73754 -1.49981 982 1636)" cx="66.42" cy="597.79" r="301.91" fx="66.42" fy="597.79">
   <stop offset="0" style="stop-opacity:1; stop-color:#ECDF3F"/>
   <stop offset="0.4" style="stop-opacity:1; stop-color:#EE3E7D"/>
   <stop offset="1" style="stop-opacity:1; stop-color:#4355A3"/>
  </radialGradient>
 </defs>
 <g id="Camada_x0020_1">
  <metadata id="CorelCorpID_0Corel-Layer"/>
  <path class="fil0" d="M607.46 305.55c0,166.74 -135.17,301.91 -301.91,301.91 -166.74,0 -301.91,-135.17 -301.91,-301.91 0,-166.74 135.17,-301.92 301.91,-301.92 166.74,0 301.91,135.17 301.91,301.92z"/>
  <path class="fil1" d="M603.83 301.92c0,166.74 -135.17,301.91 -301.91,301.91 -166.74,0 -301.91,-135.17 -301.91,-301.91 0,-166.75 135.17,-301.92 301.91,-301.92 166.74,0 301.91,135.17 301.91,301.92z"/>
  <path class="fil2" d="M603.83 301.92c0,166.74 -135.17,301.91 -301.91,301.91 -166.74,0 -301.91,-135.17 -301.91,-301.91 0,-166.75 135.17,-301.92 301.91,-301.92 166.74,0 301.91,135.17 301.91,301.92z"/>
  <path class="fil3" d="M220.12 127.42c-56.47,0 -102.41,45.94 -102.41,102.41l0 144.16c0,56.47 45.94,102.41 102.41,102.41l163.59 0c56.47,0 102.41,-45.94 102.41,-102.41l0 -144.16c0,-56.47 -45.94,-102.41 -102.41,-102.41l-163.59 0zm163.59 378.25l-163.59 0c-72.61,0 -131.68,-59.08 -131.68,-131.68l0 -144.16c0,-72.6 59.07,-131.68 131.68,-131.68l163.59 0c72.6,0 131.67,59.07 131.67,131.68l0 144.16c0,72.6 -59.07,131.68 -131.67,131.68z"/>
  <path class="fil3" d="M301.91 213.97c-48.5,0 -87.95,39.45 -87.95,87.95 0,48.49 39.45,87.94 87.95,87.94 48.49,0 87.95,-39.45 87.95,-87.94 0,-48.5 -39.45,-87.95 -87.95,-87.95zm0 205.16c-64.63,0 -117.21,-52.58 -117.21,-117.21 0,-64.64 52.58,-117.22 117.21,-117.22 64.63,0 117.21,52.58 117.21,117.22 0,64.62 -52.58,117.21 -117.21,117.21z"/>
  <path class="fil3" d="M441.65 188.31c0,13.42 -10.89,24.31 -24.32,24.31 -13.43,0 -24.32,-10.89 -24.32,-24.31 0,-13.44 10.89,-24.33 24.32,-24.33 13.43,0 24.32,10.89 24.32,24.33z"/>
 </g>
</svg>
