<?xml version="1.0" encoding="UTF-8"?>
<!DOCTYPE svg PUBLIC "-//W3C//DTD SVG 1.1//EN" "http://www.w3.org/Graphics/SVG/1.1/DTD/svg11.dtd">
<!-- Creator: CorelDRAW 2019 (64 Bit) -->
<svg xmlns="http://www.w3.org/2000/svg" xml:space="preserve" width="80.7734mm" height="80.717mm" version="1.1" style="shape-rendering:geometricPrecision; text-rendering:geometricPrecision; image-rendering:optimizeQuality; fill-rule:evenodd; clip-rule:evenodd"
viewBox="0 0 656.85 656.39"
 xmlns:xlink="http://www.w3.org/1999/xlink">
 <defs>
  <style type="text/css">
   <![CDATA[
    .fil3 {fill:#FEFEFE;fill-rule:nonzero}
    .fil0 {fill:#E5E6E7;fill-rule:nonzero}
    .fil1 {fill:#E5E4E6;fill-rule:nonzero}
    .fil2 {fill:#0DBDEA;fill-rule:nonzero}
   ]]>
  </style>
 </defs>
 <g id="Camada_x0020_1">
  <metadata id="CorelCorpID_0Corel-Layer"/>
  <path class="fil0" d="M656.85 334.02c0,178.04 -144.34,322.38 -322.38,322.38 -178.04,0 -322.38,-144.33 -322.38,-322.38 0,-178.05 144.34,-322.38 322.38,-322.38 178.05,0 322.38,144.33 322.38,322.38z"/>
  <path class="fil1" d="M652.97 330.14c0,178.04 -144.33,322.37 -322.38,322.37 -178.05,0 -322.39,-144.33 -322.39,-322.37 0,-178.05 144.34,-322.38 322.39,-322.38 178.04,0 322.38,144.33 322.38,322.38z"/>
  <path class="fil1" d="M649.1 326.26c0,178.04 -144.33,322.37 -322.38,322.37 -178.04,0 -322.38,-144.33 -322.38,-322.37 0,-178.05 144.34,-322.39 322.38,-322.39 178.05,0 322.38,144.34 322.38,322.39z"/>
  <path class="fil1" d="M645.22 322.39c0,178.04 -144.34,322.38 -322.38,322.38 -178.05,0 -322.38,-144.34 -322.38,-322.38 0,-178.05 144.33,-322.39 322.38,-322.39 178.04,0 322.38,144.33 322.38,322.39z"/>
  <path class="fil2" d="M644.76 322.39c0,178.04 -144.34,322.38 -322.39,322.38 -178.04,0 -322.38,-144.33 -322.38,-322.38 0,-178.05 144.34,-322.39 322.38,-322.39 178.04,0 322.39,144.33 322.39,322.39z"/>
  <path class="fil3" d="M528.49 171.8l0 0c0,0 0,-0 0,0 0,0 0,0 0,-0z"/>
  <path class="fil3" d="M513.43 210.89c-8.32,2.3 -14.87,1.94 -14.87,1.94l0.27 -1.58c7.75,-6.21 27.29,-25.24 29.88,-34.14 1.12,-3.85 -0.21,-5.18 -0.22,-5.3l-24.96 10.61 -20.89 9.42 0 0c-14.42,-15.27 -36.24,-24.99 -60.65,-24.99 -43.43,0 -78.65,30.77 -78.65,68.72 0,6.95 1.04,19.61 3.22,25.93 0,1.99 0.08,-1.99 0,0 -27.97,-0.77 -63.82,-12.24 -95.74,-28.41 -62.97,-31.9 -66.91,-53.99 -66.91,-53.99 -9.88,10.5 -14.99,45.27 -4.96,72.54 6.41,17.45 28.47,33.12 28.47,33.12l0 0c0,0 -9.86,0.18 -20.2,-3.32 -10.34,-3.49 -14.24,-6.95 -14.24,-6.95 -6.14,14.99 6.19,41.75 27.49,60.95 12.42,11.2 35.1,18.21 35.1,18.21l-35.44 1.01c-1.99,34.44 72.24,54.9 72.24,54.9l0 0c-21.75,16.74 -47,26.93 -74.06,26.93 -14.03,0 -27.57,-2.1 -40.43,-5.94 35.75,29.45 81.69,49.79 131.65,47.16 132.53,-6.96 207.35,-120.89 210.91,-232.77l0.18 0.23c0,0 6.2,-3.1 19.48,-16.38 13.27,-13.27 21.53,-28.81 21.53,-28.81 0,0 -19.85,8.63 -28.19,10.92z"/>
  <path class="fil3" d="M528.49 171.8c0.1,2.12 0,0.21 0,0l0 0z"/>
 </g>
</svg>
