<?xml version="1.0" encoding="UTF-8"?>
<!DOCTYPE svg PUBLIC "-//W3C//DTD SVG 1.1//EN" "http://www.w3.org/Graphics/SVG/1.1/DTD/svg11.dtd">
<!-- Creator: CorelDRAW 2019 (64 Bit) -->
<svg xmlns="http://www.w3.org/2000/svg" xml:space="preserve" width="79.541mm" height="79.5401mm" version="1.1" style="shape-rendering:geometricPrecision; text-rendering:geometricPrecision; image-rendering:optimizeQuality; fill-rule:evenodd; clip-rule:evenodd"
viewBox="0 0 587.96 587.95"
 xmlns:xlink="http://www.w3.org/1999/xlink">
 <defs>
  <style type="text/css">
   <![CDATA[
    .fil2 {fill:#FEFEFE;fill-rule:nonzero}
    .fil0 {fill:#E5E4E6;fill-rule:nonzero}
    .fil1 {fill:#00AD59;fill-rule:nonzero}
   ]]>
  </style>
 </defs>
 <g id="Camada_x0020_1">
  <metadata id="CorelCorpID_0Corel-Layer"/>
  <path class="fil0" d="M295.74 587.95c-51.15,0 -101.31,-13.53 -145.74,-39.22l-113.85 39.22 23.4 -120.56c-36.68,-50.27 -56.02,-109.4 -56.02,-171.65 0,-161.13 131.09,-292.22 292.21,-292.22 161.15,0 292.22,131.08 292.22,292.22 0,161.12 -131.07,292.21 -292.22,292.21z"/>
  <path class="fil0" d="M292.21 584.42c-51.15,0 -101.31,-13.53 -145.75,-39.22l-113.85 39.22 23.4 -120.55c-36.68,-50.27 -56.02,-109.41 -56.02,-171.65 0,-161.13 131.09,-292.21 292.21,-292.21 161.15,0 292.22,131.08 292.22,292.21 0,161.12 -131.07,292.2 -292.22,292.2z"/>
  <path class="fil1" d="M292.21 584.42c-51.15,0 -101.31,-13.53 -145.75,-39.22l-113.85 39.22 23.4 -120.55c-36.68,-50.27 -56.02,-109.41 -56.02,-171.65 0,-161.13 131.09,-292.21 292.21,-292.21 161.15,0 292.22,131.08 292.22,292.21 0,161.12 -131.07,292.2 -292.22,292.2z"/>
  <path class="fil2" d="M200.43 426.26l5.75 3.6c25.92,16.25 55.68,24.84 86.03,24.84 89.61,0 162.51,-72.9 162.51,-162.5 0,-89.6 -72.9,-162.5 -162.51,-162.5 -89.6,0 -162.49,72.9 -162.49,162.5 0,36.45 11.94,71 34.52,99.89l3.99 5.1 -8.35 43.04 40.56 -13.97zm91.78 56.85c-33.41,0 -66.19,-8.85 -95.21,-25.63l-74.38 25.63 15.28 -78.77c-23.96,-32.84 -36.59,-71.47 -36.59,-112.14 0,-105.26 85.64,-190.9 190.9,-190.9 105.27,0 190.91,85.63 190.91,190.9 0,105.27 -85.64,190.91 -190.91,190.91z"/>
  <path class="fil2" d="M195.84 218.86c0,0 11.21,-19.58 20.34,-20.7 9.13,-1.12 20.89,-1.12 24.06,4.85 3.17,5.96 17.34,40.65 17.34,40.65 0,0 2.43,5.97 -1.3,11.75 -3.73,5.78 -12.12,14.17 -12.12,14.17 0,0 -4.66,5.97 0,12.31 4.66,6.33 11.89,17.99 26.86,32.94 14.94,14.96 43.63,25.62 43.63,25.62 0,0 4.11,0.55 6.72,-2.05 2.6,-2.61 16.78,-20.32 16.78,-20.32 0,0 4.55,-5.87 12.11,-2.42 7.55,3.45 40.28,19.77 40.28,19.77 0,0 3.83,1.4 3.83,7.18 0,5.78 -2.34,19.92 -7.12,24.71 -4.78,4.78 -18.77,19.53 -39.78,19.53 -21.01,0 -71.05,-17.1 -97.72,-43.76 -26.67,-26.67 -50.34,-53.72 -55.93,-78.32 -5.6,-24.62 -4.85,-35.74 2.04,-45.88z"/>
 </g>
</svg>
